<svg xmlns="http://www.w3.org/2000/svg" xmlns:xlink="http://www.w3.org/1999/xlink" width="500" zoomAndPan="magnify" viewBox="0 0 375 374.999991" height="500" preserveAspectRatio="xMidYMid meet" version="1.0"><defs><clipPath id="595e228fef"><path d="M 57 75 L 317 75 L 317 299 L 57 299 Z M 57 75 " clip-rule="nonzero"/></clipPath><clipPath id="aefac1059b"><path d="M 211.691406 120.363281 C 211.742188 120.355469 211.835938 120.363281 212.011719 120.457031 C 212.136719 120.527344 212.464844 120.742188 213.050781 121.15625 C 213.621094 121.5625 214.402344 122.136719 215.414062 122.886719 C 217.433594 124.390625 220.371094 126.613281 224.367188 129.664062 C 232.359375 135.765625 244.59375 145.179688 262.257812 158.816406 C 267.429688 162.8125 272.132812 166.570312 275.546875 169.410156 C 277.253906 170.832031 278.628906 172.019531 279.578125 172.886719 C 280.054688 173.320312 280.414062 173.664062 280.648438 173.914062 C 280.742188 174.015625 280.808594 174.09375 280.851562 174.148438 C 280.855469 174.269531 280.863281 174.394531 280.875 174.511719 C 280.890625 174.671875 280.921875 174.886719 281.015625 175.085938 C 281.121094 175.316406 281.304688 175.53125 281.597656 175.648438 C 281.851562 175.753906 282.117188 175.746094 282.328125 175.71875 C 282.738281 175.660156 283.273438 175.460938 283.941406 175.183594 C 284.628906 174.894531 285.542969 174.476562 286.742188 173.933594 C 294.480469 170.414062 303.929688 171.996094 309.980469 177.804688 C 314.5625 182.207031 316.644531 186.816406 316.753906 192.8125 L 316.757812 193.398438 C 316.75 196.945312 316.230469 199.859375 315.09375 202.472656 C 313.957031 205.085938 312.179688 207.445312 309.597656 209.859375 L 305.382812 213.789062 L 304.714844 214.414062 L 305.464844 214.9375 L 311.117188 218.910156 L 316.457031 222.664062 L 316.457031 261.066406 C 316.457031 271.730469 316.421875 281.421875 316.363281 288.449219 C 316.335938 291.964844 316.300781 294.808594 316.265625 296.777344 C 316.253906 297.453125 316.234375 298.023438 316.222656 298.480469 C 316.074219 298.371094 315.910156 298.25 315.730469 298.121094 C 314.75 297.390625 313.351562 296.335938 311.636719 295.03125 C 308.203125 292.425781 303.507812 288.824219 298.378906 284.867188 L 280.019531 270.6875 L 279.777344 239.851562 C 279.664062 225.453125 279.570312 217.582031 279.296875 213.027344 C 279.023438 208.476562 278.574219 207.078125 277.632812 205.75 C 276.4375 204.066406 275.445312 201.625 274.839844 199.035156 C 274.234375 196.445312 274.03125 193.785156 274.34375 191.6875 L 274.917969 187.851562 L 274.984375 187.414062 L 274.625 187.148438 L 264.539062 179.667969 C 257.066406 174.121094 241.5625 162.285156 227.921875 151.773438 C 221.105469 146.519531 214.753906 141.597656 210.109375 137.964844 C 207.785156 136.148438 205.890625 134.65625 204.578125 133.601562 C 203.921875 133.078125 203.414062 132.664062 203.070312 132.375 C 203.050781 132.359375 203.035156 132.34375 203.015625 132.328125 C 203.136719 132.167969 203.289062 131.972656 203.46875 131.75 C 203.972656 131.132812 204.675781 130.324219 205.449219 129.480469 C 207.054688 127.722656 209.097656 124.730469 210.015625 122.777344 C 210.617188 121.503906 211.054688 120.828125 211.398438 120.523438 C 211.554688 120.390625 211.648438 120.367188 211.691406 120.363281 Z M 180.84375 90.566406 C 188.074219 88.359375 197.410156 91.023438 203.121094 96.996094 C 213.371094 107.707031 208.914062 126.828125 194.625 132.808594 C 192.496094 133.699219 189.515625 134.105469 186.515625 134.003906 C 183.515625 133.902344 180.597656 133.304688 178.589844 132.277344 C 177.558594 131.75 176.488281 131.339844 175.585938 131.105469 C 175.140625 130.988281 174.710938 130.910156 174.339844 130.890625 C 174.046875 130.871094 173.679688 130.882812 173.359375 131.027344 L 173.222656 131.101562 C 173.042969 131.210938 172.300781 131.765625 171.175781 132.617188 C 170.023438 133.488281 168.429688 134.703125 166.503906 136.175781 C 162.65625 139.117188 157.492188 143.089844 151.941406 147.378906 C 136.734375 159.125 124.410156 168.488281 115.722656 174.914062 C 111.378906 178.125 107.949219 180.601562 105.519531 182.269531 C 104.304688 183.105469 103.351562 183.734375 102.664062 184.148438 C 102.320312 184.359375 102.050781 184.507812 101.859375 184.601562 C 101.765625 184.648438 101.699219 184.675781 101.660156 184.691406 C 101.652344 184.691406 101.648438 184.695312 101.640625 184.695312 C 101.09375 184.726562 100.722656 185.089844 100.5 185.503906 C 100.28125 185.914062 100.144531 186.472656 100.046875 187.140625 C 99.84375 188.5 99.769531 190.617188 99.769531 193.699219 C 99.769531 197.441406 99.703125 199.527344 99.367188 201.109375 C 99.042969 202.644531 98.460938 203.734375 97.316406 205.464844 L 94.742188 209.367188 L 94.621094 209.550781 L 94.621094 270.320312 L 77.046875 283.976562 C 72.136719 287.792969 67.523438 291.347656 64.046875 293.996094 C 62.308594 295.324219 60.855469 296.421875 59.792969 297.214844 C 59.261719 297.613281 58.832031 297.929688 58.511719 298.160156 C 58.46875 298.191406 58.425781 298.21875 58.390625 298.242188 C 58.378906 298.1875 58.363281 298.121094 58.351562 298.050781 C 58.183594 297.171875 58.054688 295.558594 57.957031 292.832031 C 57.769531 287.402344 57.722656 277.734375 57.722656 261.109375 L 57.722656 222.664062 L 63.078125 218.898438 L 68.746094 214.914062 L 69.527344 214.367188 L 68.804688 213.746094 L 65.089844 210.558594 C 49.902344 197.535156 58.800781 172.203125 78.453125 172.121094 C 84.875 172.09375 89.984375 174.597656 95.257812 180.472656 C 96.433594 181.78125 97.507812 182.878906 98.300781 183.59375 C 98.691406 183.945312 99.042969 184.234375 99.320312 184.402344 C 99.429688 184.46875 99.644531 184.597656 99.890625 184.617188 C 100.035156 184.628906 100.304688 184.613281 100.527344 184.398438 C 100.746094 184.1875 100.777344 183.929688 100.777344 183.796875 C 100.777344 183.605469 100.730469 183.421875 100.683594 183.285156 C 100.632812 183.136719 100.5625 182.976562 100.484375 182.808594 C 100.328125 182.476562 100.109375 182.078125 99.855469 181.648438 C 99.339844 180.789062 98.648438 179.746094 97.914062 178.71875 C 97.179688 177.6875 96.398438 176.664062 95.710938 175.835938 C 95.363281 175.421875 95.039062 175.050781 94.746094 174.75 C 94.464844 174.464844 94.179688 174.203125 93.921875 174.042969 C 93.792969 173.960938 93.714844 173.851562 93.683594 173.75 C 93.660156 173.671875 93.671875 173.613281 93.6875 173.574219 C 93.707031 173.554688 93.726562 173.535156 93.757812 173.507812 C 93.851562 173.421875 93.988281 173.300781 94.171875 173.144531 C 94.535156 172.832031 95.054688 172.398438 95.722656 171.855469 C 97.050781 170.769531 98.941406 169.253906 101.253906 167.417969 C 105.875 163.746094 112.179688 158.808594 119.042969 153.484375 C 132.777344 142.832031 147.445312 131.457031 151.636719 128.207031 C 155.832031 124.953125 160.703125 121.445312 162.464844 120.40625 C 163.222656 119.957031 163.847656 119.570312 164.328125 119.195312 C 164.816406 118.8125 165.203125 118.40625 165.457031 117.902344 C 165.714844 117.390625 165.800781 116.847656 165.804688 116.238281 C 165.808594 115.640625 165.730469 114.933594 165.617188 114.09375 C 165.3125 111.820312 165.597656 108.851562 166.3125 105.972656 C 166.984375 103.269531 168.011719 100.722656 169.210938 98.957031 L 169.453125 98.613281 C 172.027344 95.117188 176.664062 91.84375 180.84375 90.566406 Z M 232.25 182.28125 C 236.816406 185.9375 240.96875 189.332031 243.976562 191.859375 C 245.480469 193.121094 246.695312 194.164062 247.53125 194.910156 C 247.886719 195.230469 248.167969 195.492188 248.371094 195.6875 C 248.160156 195.917969 247.863281 196.230469 247.480469 196.617188 C 246.628906 197.46875 245.398438 198.667969 243.875 200.117188 C 240.828125 203.023438 236.617188 206.945312 231.988281 211.175781 C 222.71875 219.644531 208.847656 232.398438 201.164062 239.515625 C 197.324219 243.074219 193.753906 246.273438 191.09375 248.566406 C 189.765625 249.710938 188.667969 250.625 187.878906 251.238281 C 187.5 251.539062 187.203125 251.757812 186.992188 251.898438 C 186.84375 251.785156 186.644531 251.628906 186.398438 251.429688 C 185.859375 250.992188 185.117188 250.367188 184.203125 249.574219 C 182.367188 247.992188 179.847656 245.757812 176.871094 243.09375 C 170.921875 237.761719 163.167969 230.707031 155.476562 223.644531 C 147.785156 216.582031 140.164062 209.511719 134.480469 204.160156 C 131.640625 201.484375 129.285156 199.238281 127.652344 197.640625 C 126.835938 196.839844 126.203125 196.203125 125.785156 195.761719 C 125.703125 195.675781 125.636719 195.597656 125.574219 195.53125 C 125.800781 195.316406 126.113281 195.027344 126.511719 194.675781 C 127.371094 193.914062 128.597656 192.871094 130.101562 191.617188 C 133.113281 189.109375 137.230469 185.777344 141.722656 182.226562 C 146.210938 178.671875 150.367188 175.433594 153.445312 173.078125 C 154.980469 171.898438 156.246094 170.945312 157.148438 170.28125 C 157.597656 169.949219 157.953125 169.695312 158.203125 169.523438 C 158.273438 169.472656 158.335938 169.433594 158.386719 169.402344 C 158.40625 169.414062 158.433594 169.421875 158.457031 169.441406 C 158.582031 169.519531 158.707031 169.644531 158.789062 169.777344 L 158.789062 169.78125 C 158.847656 169.875 158.9375 169.972656 158.992188 170.039062 C 159.066406 170.117188 159.160156 170.21875 159.269531 170.332031 C 159.492188 170.558594 159.796875 170.859375 160.175781 171.226562 C 160.929688 171.957031 161.988281 172.960938 163.265625 174.160156 C 165.824219 176.558594 169.277344 179.75 173.007812 183.152344 L 186.578125 195.527344 L 187.078125 195.984375 L 187.574219 195.527344 L 202.082031 182.234375 L 216.125 169.371094 Z M 59.128906 77.082031 C 61.4375 78.738281 77.828125 92.546875 107.414062 117.761719 L 117.871094 126.675781 L 116.214844 128.054688 C 114.933594 129.121094 107.5625 135.226562 99.832031 141.628906 L 85.992188 153.085938 L 79.285156 152.890625 C 74.058594 152.738281 70.808594 153.195312 66.976562 154.652344 L 62.375 156.40625 L 60.105469 154.222656 L 57.722656 151.9375 L 57.722656 76.070312 Z M 316.246094 113.285156 L 316.503906 151.808594 L 313.890625 154.175781 C 313.171875 154.824219 312.667969 155.277344 312.25 155.589844 C 311.835938 155.898438 311.585938 156.007812 311.386719 156.042969 C 311.203125 156.070312 310.96875 156.046875 310.5625 155.886719 C 310.144531 155.71875 309.621094 155.441406 308.863281 155.027344 C 306.5 153.746094 303.039062 153.257812 296.617188 153.144531 L 287.980469 152.988281 L 272.003906 139.78125 C 267.5625 136.109375 263.554688 132.695312 260.675781 130.15625 C 259.238281 128.882812 258.089844 127.835938 257.308594 127.085938 C 256.996094 126.785156 256.75 126.535156 256.574219 126.34375 C 256.664062 126.253906 256.773438 126.144531 256.90625 126.019531 C 257.378906 125.570312 258.078125 124.9375 259.003906 124.117188 C 260.855469 122.472656 263.605469 120.097656 267.253906 116.984375 C 274.546875 110.753906 285.421875 101.589844 299.882812 89.484375 L 315.996094 75.992188 Z M 316.246094 113.285156 " clip-rule="nonzero"/></clipPath><linearGradient x1="78.260972" gradientTransform="matrix(1.477433, 0, 0, 1.480392, 56.687606, 74.420138)" y1="-3.467304" x2="70.935472" gradientUnits="userSpaceOnUse" y2="154.641402" id="2afb853176"><stop stop-opacity="1" stop-color="rgb(10.978699%, 10.978699%, 16.859436%)" offset="0"/><stop stop-opacity="1" stop-color="rgb(10.978699%, 10.978699%, 16.859436%)" offset="0.0514971"/><stop stop-opacity="1" stop-color="rgb(10.978699%, 10.978699%, 16.859436%)" offset="0.0625"/><stop stop-opacity="1" stop-color="rgb(10.978699%, 10.978699%, 16.859436%)" offset="0.09375"/><stop stop-opacity="1" stop-color="rgb(10.978699%, 10.978699%, 16.859436%)" offset="0.101562"/><stop stop-opacity="1" stop-color="rgb(11.279297%, 11.256409%, 17.245483%)" offset="0.105469"/><stop stop-opacity="1" stop-color="rgb(11.579895%, 11.535645%, 17.631531%)" offset="0.109375"/><stop stop-opacity="1" stop-color="rgb(12.005615%, 11.930847%, 18.179321%)" offset="0.113281"/><stop stop-opacity="1" stop-color="rgb(12.432861%, 12.32605%, 18.728638%)" offset="0.117188"/><stop stop-opacity="1" stop-color="rgb(12.858582%, 12.721252%, 19.277954%)" offset="0.121094"/><stop stop-opacity="1" stop-color="rgb(13.285828%, 13.116455%, 19.827271%)" offset="0.125"/><stop stop-opacity="1" stop-color="rgb(13.711548%, 13.511658%, 20.375061%)" offset="0.128906"/><stop stop-opacity="1" stop-color="rgb(14.138794%, 13.908386%, 20.924377%)" offset="0.132813"/><stop stop-opacity="1" stop-color="rgb(14.564514%, 14.303589%, 21.473694%)" offset="0.136719"/><stop stop-opacity="1" stop-color="rgb(14.99176%, 14.698792%, 22.02301%)" offset="0.140625"/><stop stop-opacity="1" stop-color="rgb(15.41748%, 15.093994%, 22.570801%)" offset="0.144531"/><stop stop-opacity="1" stop-color="rgb(15.844727%, 15.489197%, 23.120117%)" offset="0.148438"/><stop stop-opacity="1" stop-color="rgb(16.270447%, 15.884399%, 23.669434%)" offset="0.152344"/><stop stop-opacity="1" stop-color="rgb(16.697693%, 16.279602%, 24.21875%)" offset="0.15625"/><stop stop-opacity="1" stop-color="rgb(17.123413%, 16.674805%, 24.766541%)" offset="0.160156"/><stop stop-opacity="1" stop-color="rgb(17.550659%, 17.071533%, 25.315857%)" offset="0.164063"/><stop stop-opacity="1" stop-color="rgb(17.977905%, 17.466736%, 25.863647%)" offset="0.167969"/><stop stop-opacity="1" stop-color="rgb(18.405151%, 17.861938%, 26.412964%)" offset="0.171875"/><stop stop-opacity="1" stop-color="rgb(18.830872%, 18.257141%, 26.96228%)" offset="0.175781"/><stop stop-opacity="1" stop-color="rgb(19.258118%, 18.652344%, 27.511597%)" offset="0.179688"/><stop stop-opacity="1" stop-color="rgb(19.683838%, 19.047546%, 28.059387%)" offset="0.183594"/><stop stop-opacity="1" stop-color="rgb(20.111084%, 19.442749%, 28.608704%)" offset="0.1875"/><stop stop-opacity="1" stop-color="rgb(20.536804%, 19.837952%, 29.15802%)" offset="0.191406"/><stop stop-opacity="1" stop-color="rgb(20.96405%, 20.23468%, 29.707336%)" offset="0.195312"/><stop stop-opacity="1" stop-color="rgb(21.389771%, 20.629883%, 30.255127%)" offset="0.199219"/><stop stop-opacity="1" stop-color="rgb(21.817017%, 21.025085%, 30.804443%)" offset="0.203125"/><stop stop-opacity="1" stop-color="rgb(22.242737%, 21.420288%, 31.35376%)" offset="0.207031"/><stop stop-opacity="1" stop-color="rgb(22.669983%, 21.815491%, 31.903076%)" offset="0.210938"/><stop stop-opacity="1" stop-color="rgb(23.095703%, 22.210693%, 32.450867%)" offset="0.214844"/><stop stop-opacity="1" stop-color="rgb(23.522949%, 22.607422%, 33.000183%)" offset="0.21875"/><stop stop-opacity="1" stop-color="rgb(23.948669%, 23.002625%, 33.5495%)" offset="0.222656"/><stop stop-opacity="1" stop-color="rgb(24.375916%, 23.397827%, 34.098816%)" offset="0.226562"/><stop stop-opacity="1" stop-color="rgb(24.803162%, 23.79303%, 34.646606%)" offset="0.230469"/><stop stop-opacity="1" stop-color="rgb(25.230408%, 24.188232%, 35.195923%)" offset="0.234375"/><stop stop-opacity="1" stop-color="rgb(25.656128%, 24.583435%, 35.743713%)" offset="0.238281"/><stop stop-opacity="1" stop-color="rgb(26.083374%, 24.978638%, 36.29303%)" offset="0.242188"/><stop stop-opacity="1" stop-color="rgb(26.509094%, 25.37384%, 36.842346%)" offset="0.246094"/><stop stop-opacity="1" stop-color="rgb(26.93634%, 25.770569%, 37.391663%)" offset="0.25"/><stop stop-opacity="1" stop-color="rgb(27.362061%, 26.165771%, 37.939453%)" offset="0.253906"/><stop stop-opacity="1" stop-color="rgb(27.789307%, 26.560974%, 38.48877%)" offset="0.257813"/><stop stop-opacity="1" stop-color="rgb(28.215027%, 26.956177%, 39.038086%)" offset="0.261719"/><stop stop-opacity="1" stop-color="rgb(28.642273%, 27.351379%, 39.587402%)" offset="0.265625"/><stop stop-opacity="1" stop-color="rgb(29.067993%, 27.746582%, 40.135193%)" offset="0.269531"/><stop stop-opacity="1" stop-color="rgb(29.495239%, 28.141785%, 40.684509%)" offset="0.273438"/><stop stop-opacity="1" stop-color="rgb(29.920959%, 28.536987%, 41.233826%)" offset="0.277344"/><stop stop-opacity="1" stop-color="rgb(30.348206%, 28.933716%, 41.783142%)" offset="0.28125"/><stop stop-opacity="1" stop-color="rgb(30.773926%, 29.328918%, 42.330933%)" offset="0.285156"/><stop stop-opacity="1" stop-color="rgb(31.201172%, 29.724121%, 42.880249%)" offset="0.289063"/><stop stop-opacity="1" stop-color="rgb(31.628418%, 30.119324%, 43.42804%)" offset="0.292969"/><stop stop-opacity="1" stop-color="rgb(32.055664%, 30.514526%, 43.977356%)" offset="0.296875"/><stop stop-opacity="1" stop-color="rgb(32.481384%, 30.909729%, 44.526672%)" offset="0.300781"/><stop stop-opacity="1" stop-color="rgb(32.90863%, 31.304932%, 45.075989%)" offset="0.304688"/><stop stop-opacity="1" stop-color="rgb(33.334351%, 31.700134%, 45.623779%)" offset="0.308594"/><stop stop-opacity="1" stop-color="rgb(33.761597%, 32.096863%, 46.173096%)" offset="0.3125"/><stop stop-opacity="1" stop-color="rgb(34.187317%, 32.492065%, 46.722412%)" offset="0.316406"/><stop stop-opacity="1" stop-color="rgb(34.614563%, 32.887268%, 47.271729%)" offset="0.320313"/><stop stop-opacity="1" stop-color="rgb(35.040283%, 33.282471%, 47.819519%)" offset="0.324219"/><stop stop-opacity="1" stop-color="rgb(35.467529%, 33.677673%, 48.368835%)" offset="0.328125"/><stop stop-opacity="1" stop-color="rgb(35.89325%, 34.072876%, 48.918152%)" offset="0.332031"/><stop stop-opacity="1" stop-color="rgb(36.320496%, 34.468079%, 49.467468%)" offset="0.335938"/><stop stop-opacity="1" stop-color="rgb(36.746216%, 34.863281%, 50.015259%)" offset="0.339844"/><stop stop-opacity="1" stop-color="rgb(37.173462%, 35.26001%, 50.564575%)" offset="0.34375"/><stop stop-opacity="1" stop-color="rgb(37.599182%, 35.655212%, 51.113892%)" offset="0.347656"/><stop stop-opacity="1" stop-color="rgb(38.026428%, 36.050415%, 51.663208%)" offset="0.351562"/><stop stop-opacity="1" stop-color="rgb(38.452148%, 36.445618%, 52.210999%)" offset="0.355469"/><stop stop-opacity="1" stop-color="rgb(38.879395%, 36.84082%, 52.760315%)" offset="0.359375"/><stop stop-opacity="1" stop-color="rgb(39.306641%, 37.236023%, 53.308105%)" offset="0.363281"/><stop stop-opacity="1" stop-color="rgb(39.733887%, 37.631226%, 53.857422%)" offset="0.367188"/><stop stop-opacity="1" stop-color="rgb(40.159607%, 38.026428%, 54.406738%)" offset="0.371094"/><stop stop-opacity="1" stop-color="rgb(40.586853%, 38.423157%, 54.956055%)" offset="0.375"/><stop stop-opacity="1" stop-color="rgb(41.012573%, 38.818359%, 55.503845%)" offset="0.378906"/><stop stop-opacity="1" stop-color="rgb(41.439819%, 39.213562%, 56.053162%)" offset="0.382812"/><stop stop-opacity="1" stop-color="rgb(41.86554%, 39.608765%, 56.602478%)" offset="0.386719"/><stop stop-opacity="1" stop-color="rgb(42.292786%, 40.003967%, 57.151794%)" offset="0.390625"/><stop stop-opacity="1" stop-color="rgb(42.718506%, 40.39917%, 57.699585%)" offset="0.394531"/><stop stop-opacity="1" stop-color="rgb(43.145752%, 40.794373%, 58.248901%)" offset="0.398438"/><stop stop-opacity="1" stop-color="rgb(43.571472%, 41.189575%, 58.798218%)" offset="0.402344"/><stop stop-opacity="1" stop-color="rgb(43.998718%, 41.586304%, 59.347534%)" offset="0.40625"/><stop stop-opacity="1" stop-color="rgb(44.424438%, 41.981506%, 59.895325%)" offset="0.410156"/><stop stop-opacity="1" stop-color="rgb(44.851685%, 42.376709%, 60.444641%)" offset="0.414063"/><stop stop-opacity="1" stop-color="rgb(45.277405%, 42.771912%, 60.993958%)" offset="0.417969"/><stop stop-opacity="1" stop-color="rgb(45.704651%, 43.167114%, 61.543274%)" offset="0.421875"/><stop stop-opacity="1" stop-color="rgb(46.131897%, 43.562317%, 62.091064%)" offset="0.425781"/><stop stop-opacity="1" stop-color="rgb(46.559143%, 43.95752%, 62.640381%)" offset="0.429688"/><stop stop-opacity="1" stop-color="rgb(46.984863%, 44.352722%, 63.188171%)" offset="0.433594"/><stop stop-opacity="1" stop-color="rgb(47.412109%, 44.749451%, 63.737488%)" offset="0.4375"/><stop stop-opacity="1" stop-color="rgb(47.83783%, 45.144653%, 64.286804%)" offset="0.441406"/><stop stop-opacity="1" stop-color="rgb(48.265076%, 45.539856%, 64.836121%)" offset="0.445313"/><stop stop-opacity="1" stop-color="rgb(48.690796%, 45.935059%, 65.383911%)" offset="0.449219"/><stop stop-opacity="1" stop-color="rgb(49.118042%, 46.330261%, 65.933228%)" offset="0.453125"/><stop stop-opacity="1" stop-color="rgb(49.543762%, 46.725464%, 66.482544%)" offset="0.457031"/><stop stop-opacity="1" stop-color="rgb(49.971008%, 47.122192%, 67.03186%)" offset="0.460938"/><stop stop-opacity="1" stop-color="rgb(50.396729%, 47.517395%, 67.579651%)" offset="0.464844"/><stop stop-opacity="1" stop-color="rgb(50.823975%, 47.912598%, 68.128967%)" offset="0.46875"/><stop stop-opacity="1" stop-color="rgb(51.249695%, 48.3078%, 68.678284%)" offset="0.472656"/><stop stop-opacity="1" stop-color="rgb(51.676941%, 48.703003%, 69.2276%)" offset="0.476563"/><stop stop-opacity="1" stop-color="rgb(52.102661%, 49.098206%, 69.775391%)" offset="0.480469"/><stop stop-opacity="1" stop-color="rgb(52.529907%, 49.493408%, 70.324707%)" offset="0.484375"/><stop stop-opacity="1" stop-color="rgb(52.957153%, 49.888611%, 70.874023%)" offset="0.488281"/><stop stop-opacity="1" stop-color="rgb(53.384399%, 50.285339%, 71.42334%)" offset="0.492188"/><stop stop-opacity="1" stop-color="rgb(53.81012%, 50.680542%, 71.97113%)" offset="0.496094"/><stop stop-opacity="1" stop-color="rgb(54.237366%, 51.075745%, 72.520447%)" offset="0.5"/><stop stop-opacity="1" stop-color="rgb(54.663086%, 51.470947%, 73.068237%)" offset="0.503906"/><stop stop-opacity="1" stop-color="rgb(55.090332%, 51.86615%, 73.617554%)" offset="0.507812"/><stop stop-opacity="1" stop-color="rgb(55.516052%, 52.261353%, 74.16687%)" offset="0.511719"/><stop stop-opacity="1" stop-color="rgb(55.943298%, 52.656555%, 74.716187%)" offset="0.515625"/><stop stop-opacity="1" stop-color="rgb(56.369019%, 53.051758%, 75.263977%)" offset="0.519531"/><stop stop-opacity="1" stop-color="rgb(56.796265%, 53.448486%, 75.813293%)" offset="0.523438"/><stop stop-opacity="1" stop-color="rgb(57.221985%, 53.843689%, 76.36261%)" offset="0.527344"/><stop stop-opacity="1" stop-color="rgb(57.649231%, 54.238892%, 76.911926%)" offset="0.53125"/><stop stop-opacity="1" stop-color="rgb(58.074951%, 54.634094%, 77.459717%)" offset="0.535156"/><stop stop-opacity="1" stop-color="rgb(58.502197%, 55.029297%, 78.009033%)" offset="0.539062"/><stop stop-opacity="1" stop-color="rgb(58.927917%, 55.4245%, 78.55835%)" offset="0.542969"/><stop stop-opacity="1" stop-color="rgb(59.355164%, 55.819702%, 79.107666%)" offset="0.546875"/><stop stop-opacity="1" stop-color="rgb(59.78241%, 56.214905%, 79.655457%)" offset="0.550781"/><stop stop-opacity="1" stop-color="rgb(60.209656%, 56.611633%, 80.204773%)" offset="0.554688"/><stop stop-opacity="1" stop-color="rgb(60.635376%, 57.006836%, 80.752563%)" offset="0.558594"/><stop stop-opacity="1" stop-color="rgb(61.062622%, 57.402039%, 81.30188%)" offset="0.5625"/><stop stop-opacity="1" stop-color="rgb(61.488342%, 57.797241%, 81.851196%)" offset="0.566406"/><stop stop-opacity="1" stop-color="rgb(61.915588%, 58.192444%, 82.400513%)" offset="0.570312"/><stop stop-opacity="1" stop-color="rgb(62.341309%, 58.587646%, 82.948303%)" offset="0.574219"/><stop stop-opacity="1" stop-color="rgb(62.768555%, 58.982849%, 83.49762%)" offset="0.578125"/><stop stop-opacity="1" stop-color="rgb(63.194275%, 59.378052%, 84.046936%)" offset="0.582031"/><stop stop-opacity="1" stop-color="rgb(63.621521%, 59.77478%, 84.596252%)" offset="0.585938"/><stop stop-opacity="1" stop-color="rgb(64.047241%, 60.169983%, 85.144043%)" offset="0.589844"/><stop stop-opacity="1" stop-color="rgb(64.474487%, 60.565186%, 85.693359%)" offset="0.59375"/><stop stop-opacity="1" stop-color="rgb(64.900208%, 60.960388%, 86.242676%)" offset="0.597656"/><stop stop-opacity="1" stop-color="rgb(65.327454%, 61.355591%, 86.791992%)" offset="0.601562"/><stop stop-opacity="1" stop-color="rgb(65.753174%, 61.750793%, 87.339783%)" offset="0.605469"/><stop stop-opacity="1" stop-color="rgb(66.18042%, 62.145996%, 87.889099%)" offset="0.609375"/><stop stop-opacity="1" stop-color="rgb(66.60614%, 62.541199%, 88.438416%)" offset="0.613281"/><stop stop-opacity="1" stop-color="rgb(67.033386%, 62.937927%, 88.987732%)" offset="0.617188"/><stop stop-opacity="1" stop-color="rgb(67.460632%, 63.33313%, 89.535522%)" offset="0.621094"/><stop stop-opacity="1" stop-color="rgb(67.887878%, 63.728333%, 90.084839%)" offset="0.625"/><stop stop-opacity="1" stop-color="rgb(68.313599%, 64.123535%, 90.632629%)" offset="0.628906"/><stop stop-opacity="1" stop-color="rgb(68.740845%, 64.518738%, 91.181946%)" offset="0.632812"/><stop stop-opacity="1" stop-color="rgb(69.166565%, 64.91394%, 91.731262%)" offset="0.636719"/><stop stop-opacity="1" stop-color="rgb(69.593811%, 65.309143%, 92.280579%)" offset="0.640625"/><stop stop-opacity="1" stop-color="rgb(70.019531%, 65.704346%, 92.828369%)" offset="0.644531"/><stop stop-opacity="1" stop-color="rgb(70.446777%, 66.101074%, 93.377686%)" offset="0.648438"/><stop stop-opacity="1" stop-color="rgb(70.872498%, 66.496277%, 93.927002%)" offset="0.652344"/><stop stop-opacity="1" stop-color="rgb(71.299744%, 66.891479%, 94.476318%)" offset="0.65625"/><stop stop-opacity="1" stop-color="rgb(71.725464%, 67.286682%, 95.024109%)" offset="0.660156"/><stop stop-opacity="1" stop-color="rgb(72.15271%, 67.681885%, 95.573425%)" offset="0.664062"/><stop stop-opacity="1" stop-color="rgb(72.57843%, 68.077087%, 96.122742%)" offset="0.667969"/><stop stop-opacity="1" stop-color="rgb(73.005676%, 68.47229%, 96.672058%)" offset="0.671875"/><stop stop-opacity="1" stop-color="rgb(73.431396%, 68.867493%, 97.219849%)" offset="0.675781"/><stop stop-opacity="1" stop-color="rgb(73.858643%, 69.264221%, 97.769165%)" offset="0.679688"/><stop stop-opacity="1" stop-color="rgb(74.285889%, 69.659424%, 98.318481%)" offset="0.683594"/><stop stop-opacity="1" stop-color="rgb(74.713135%, 70.054626%, 98.867798%)" offset="0.6875"/><stop stop-opacity="1" stop-color="rgb(75.001526%, 70.321655%, 99.238586%)" offset="0.691406"/><stop stop-opacity="1" stop-color="rgb(75.289917%, 70.588684%, 99.609375%)" offset="0.695312"/><stop stop-opacity="1" stop-color="rgb(75.289917%, 70.588684%, 99.609375%)" offset="0.703125"/><stop stop-opacity="1" stop-color="rgb(75.289917%, 70.588684%, 99.609375%)" offset="0.71875"/><stop stop-opacity="1" stop-color="rgb(75.289917%, 70.588684%, 99.609375%)" offset="0.75"/><stop stop-opacity="1" stop-color="rgb(75.289917%, 70.588684%, 99.609375%)" offset="0.948503"/><stop stop-opacity="1" stop-color="rgb(75.289917%, 70.588684%, 99.609375%)" offset="1"/></linearGradient><clipPath id="df65ebca60"><path d="M 56.566406 74.421875 L 318.316406 74.421875 L 318.316406 300.921875 L 56.566406 300.921875 Z M 56.566406 74.421875 " clip-rule="nonzero"/></clipPath></defs><g clip-path="url(#595e228fef)"><g clip-path="url(#aefac1059b)"><path fill="url(#2afb853176)" d="M 56.566406 75.992188 L 56.566406 298.480469 L 316.757812 298.480469 L 316.757812 75.992188 Z M 56.566406 75.992188 " fill-rule="nonzero"/></g></g><g clip-path="url(#df65ebca60)"><path stroke-linecap="butt" transform="matrix(1.477433, 0, 0, 1.480392, 56.687605, 74.420122)" fill="none" stroke-linejoin="miter" d="M 104.914287 31.034452 C 104.948659 31.029175 105.012113 31.034452 105.131091 31.09778 C 105.215697 31.145276 105.437788 31.290402 105.83438 31.5701 C 106.220396 31.84452 106.749185 32.232403 107.433966 32.739026 C 108.800886 33.754909 110.789132 35.256306 113.493887 37.317099 C 118.903397 41.438684 127.184231 47.797852 139.140148 57.00941 C 142.64073 59.708759 145.824039 62.247148 148.134846 64.165453 C 149.29025 65.125925 150.220919 65.928078 150.863397 66.51386 C 151.185958 66.806751 151.429201 67.038953 151.587838 67.207827 C 151.651293 67.276432 151.69624 67.329206 151.725323 67.366147 C 151.727967 67.447945 151.733255 67.532382 151.741187 67.611542 C 151.751762 67.719727 151.772914 67.864853 151.836369 67.999425 C 151.907755 68.155106 152.032021 68.300232 152.230316 68.379392 C 152.402173 68.450636 152.581961 68.445358 152.724734 68.426888 C 153.002348 68.387308 153.364569 68.252736 153.816683 68.065391 C 154.282017 67.870131 154.9007 67.587794 155.712391 67.221021 C 160.950045 64.843589 167.345747 65.912246 171.441216 69.835932 C 174.542563 72.8097 175.951786 75.923318 176.025816 79.973659 L 176.02846 80.369458 C 176.023172 82.76536 175.671528 84.7338 174.90214 86.499063 C 174.132752 88.264325 172.929757 89.858075 171.18211 91.488767 L 168.329294 94.143258 L 167.877179 94.565443 L 168.384817 94.919023 L 172.210604 97.602539 L 175.824876 100.138291 L 175.824876 126.078946 C 175.824876 133.282485 175.801081 139.828998 175.761422 144.575946 C 175.742914 146.950739 175.719119 148.871682 175.695323 150.201566 C 175.687391 150.658054 175.674171 151.043299 175.66624 151.352022 C 175.56577 151.278139 175.454724 151.196341 175.333103 151.109265 C 174.669473 150.615836 173.722941 149.903398 172.562249 149.022086 C 170.238222 147.2621 167.060201 144.829257 163.588702 142.156295 L 151.162163 132.577963 L 150.998238 111.74839 C 150.921564 102.022293 150.858109 96.705395 150.673033 93.628719 C 150.487957 90.554681 150.183903 89.610041 149.546713 88.712897 C 148.737666 87.575635 148.066104 85.926474 147.656293 84.177043 C 147.246481 82.427612 147.108996 80.630685 147.320512 79.213725 L 147.709171 76.622562 L 147.754119 76.327032 L 147.510876 76.147604 L 140.684211 71.094572 C 135.626345 67.347676 125.13253 59.35254 115.899876 52.251908 C 111.286193 48.702912 106.98714 45.378202 103.84349 42.924249 C 102.270343 41.697273 100.98803 40.689305 100.099664 39.976867 C 99.655482 39.623287 99.311769 39.343589 99.079102 39.148328 C 99.065882 39.137774 99.055306 39.127219 99.042087 39.116664 C 99.124049 39.008479 99.227163 38.876546 99.348784 38.726143 C 99.689853 38.309235 100.165763 37.763032 100.689264 37.193082 C 101.775925 36.005685 103.158708 33.984473 103.780035 32.665143 C 104.187203 31.80494 104.483324 31.348452 104.715991 31.142637 C 104.821749 31.052923 104.885204 31.037091 104.914287 31.034452 Z M 84.035058 10.906762 C 88.928999 9.41592 95.248026 11.215485 99.113473 15.249994 C 106.051183 22.485197 103.034443 35.401433 93.362894 39.441219 C 91.921944 40.042834 89.904615 40.317254 87.874065 40.248649 C 85.843516 40.180044 83.86849 39.776329 82.509502 39.082362 C 81.811501 38.726143 81.08706 38.449084 80.476309 38.290764 C 80.174899 38.211604 79.884065 38.158831 79.632891 38.145638 C 79.434595 38.132445 79.186064 38.140361 78.969261 38.237991 L 78.876723 38.288125 C 78.755101 38.362008 78.252752 38.736697 77.491296 39.311925 C 76.711332 39.900346 75.632603 40.720969 74.329138 41.715743 C 71.724853 43.702654 68.229559 46.38617 64.472514 49.283417 C 54.179638 57.217865 45.837993 63.54273 39.957861 67.883324 C 37.017795 70.052302 34.696412 71.725211 33.051878 72.851919 C 32.229611 73.416592 31.584489 73.841416 31.119155 74.121114 C 30.886488 74.263601 30.704056 74.36387 30.574502 74.427198 C 30.511048 74.458862 30.466101 74.477333 30.439661 74.487887 C 30.434373 74.487887 30.431729 74.490526 30.426441 74.490526 C 30.056289 74.511635 29.805114 74.75703 29.65441 75.036728 C 29.506349 75.313787 29.413811 75.691116 29.347712 76.142326 C 29.210227 77.06058 29.159992 78.490733 29.159992 80.572635 C 29.159992 83.10047 29.115045 84.509514 28.887666 85.578171 C 28.668218 86.615164 28.274271 87.351349 27.499595 88.520275 L 25.757236 91.156296 L 25.675273 91.280313 L 25.675273 132.329929 L 13.780167 141.554681 C 10.456729 144.132651 7.334231 146.53383 4.98112 148.322841 C 3.804565 149.219985 2.821018 149.961448 2.101865 150.497096 C 1.742288 150.766239 1.451455 150.979971 1.234651 151.135652 C 1.205568 151.156761 1.176484 151.175231 1.152689 151.191063 C 1.144757 151.154122 1.134181 151.109265 1.126249 151.061769 C 1.01256 150.468071 0.92531 149.378305 0.859211 147.536521 C 0.732302 143.868785 0.700574 137.338104 0.700574 126.107972 L 0.700574 100.138291 L 4.325422 97.594623 L 8.161785 94.903191 L 8.690574 94.533779 L 8.201445 94.114232 L 5.687054 91.961087 C -4.592602 83.163798 1.430303 66.052095 14.731987 65.996683 C 19.078632 65.978212 22.536911 67.669593 26.106236 71.638136 C 26.902063 72.522086 27.629148 73.263549 28.165869 73.746424 C 28.430263 73.983903 28.668218 74.179164 28.855938 74.292626 C 28.929969 74.337484 29.075386 74.424559 29.241954 74.437753 C 29.33978 74.445669 29.522212 74.435114 29.672917 74.289988 C 29.820978 74.1475 29.84213 73.973349 29.84213 73.883634 C 29.84213 73.75434 29.810402 73.630323 29.778675 73.53797 C 29.744304 73.437701 29.696713 73.329516 29.643834 73.216054 C 29.538076 72.991768 29.390015 72.722624 29.218159 72.432372 C 28.869158 71.851867 28.40118 71.147345 27.904118 70.453378 C 27.407057 69.756772 26.878268 69.065443 26.412934 68.506047 C 26.177623 68.22635 25.958175 67.975677 25.759879 67.7725 C 25.569515 67.579878 25.376508 67.403088 25.202007 67.294903 C 25.114757 67.239491 25.061878 67.165609 25.040727 67.097004 C 25.024863 67.04423 25.032795 67.00465 25.043371 66.978264 C 25.05659 66.965071 25.06981 66.951877 25.090962 66.933407 C 25.154416 66.875356 25.246954 66.793558 25.37122 66.688011 C 25.617106 66.476919 25.968751 66.184028 26.420866 65.817254 C 27.319807 65.083707 28.599476 64.059907 30.164691 62.819737 C 33.292477 60.339398 37.559803 57.004133 42.205214 53.407641 C 51.501322 46.212018 61.429334 38.528243 64.266286 36.332879 C 67.105882 34.134876 70.402881 31.765361 71.5953 31.063477 C 72.108225 30.760032 72.531256 30.498804 72.856461 30.245493 C 73.186954 29.986904 73.448705 29.712484 73.620561 29.372097 C 73.795062 29.026433 73.853228 28.659659 73.855872 28.248028 C 73.858516 27.844313 73.805637 27.366716 73.728963 26.799404 C 73.522735 25.263705 73.715743 23.258324 74.199585 21.313633 C 74.654343 19.487681 75.349701 17.767275 76.161392 16.574601 L 76.325316 16.342399 C 78.067676 13.980799 81.206038 11.769603 84.035058 10.906762 Z M 118.829367 72.859835 C 121.920138 75.329619 124.730651 77.622614 126.766488 79.329826 C 127.784406 80.182113 128.606673 80.886635 129.172477 81.390619 C 129.413076 81.606989 129.60344 81.783779 129.740925 81.915712 C 129.598152 82.071393 129.397212 82.282486 129.138106 82.543713 C 128.561726 83.118941 127.728884 83.929009 126.697745 84.907951 C 124.635469 86.871114 121.785297 89.520327 118.652222 92.377995 C 112.378142 98.098607 102.989496 106.713829 97.788857 111.521465 C 95.18986 113.925283 92.773294 116.086345 90.972768 117.635238 C 90.073827 118.408365 89.330879 119.025811 88.796802 119.440081 C 88.540339 119.643257 88.3394 119.791022 88.196627 119.886014 C 88.096157 119.809493 87.961316 119.703947 87.794747 119.569375 C 87.429883 119.273845 86.927533 118.85166 86.30885 118.316012 C 85.066197 117.247355 83.360852 115.738042 81.346167 113.938477 C 77.319439 110.336707 72.07121 105.571289 66.865283 100.800594 C 61.659357 96.029899 56.501021 91.253926 52.654082 87.638963 C 50.731934 85.831482 49.137636 84.314253 48.032467 83.235042 C 47.479883 82.694116 47.051564 82.264015 46.768662 81.965847 C 46.713139 81.907796 46.668192 81.855023 46.625889 81.810166 C 46.779238 81.665039 46.990753 81.469779 47.260435 81.232299 C 47.842103 80.717761 48.672302 80.013239 49.69022 79.166229 C 51.728701 77.47221 54.515419 75.221434 57.555955 72.822893 C 60.593847 70.421714 63.407004 68.234266 65.490432 66.643154 C 66.529502 65.846279 67.38614 65.202446 67.996891 64.753874 C 68.300945 64.529588 68.541544 64.358076 68.710756 64.241975 C 68.758347 64.207672 68.800651 64.181285 68.835022 64.160176 C 68.848242 64.168092 68.866749 64.173369 68.882613 64.186563 C 68.967219 64.239336 69.051825 64.323773 69.107348 64.413487 L 69.107348 64.416126 C 69.147007 64.479454 69.207818 64.54542 69.244833 64.590278 C 69.295068 64.643051 69.358523 64.711656 69.432553 64.788177 C 69.583258 64.941219 69.789486 65.144396 70.045948 65.39243 C 70.55623 65.885859 71.272739 66.563994 72.137308 67.374063 C 73.869092 68.994199 76.206339 71.149984 78.731306 73.448256 L 87.916369 81.807527 L 88.254793 82.11625 L 88.590574 81.807527 L 98.410184 72.828171 L 107.915164 64.139067 Z M 1.652394 1.798111 C 3.214965 2.916903 14.308956 12.244562 34.334191 29.277105 L 41.41203 35.298525 L 40.290998 36.229971 C 39.423784 36.950325 34.434661 41.074549 29.202295 45.399311 L 19.8348 53.138498 L 15.295147 53.006565 C 11.75755 52.903657 9.557788 53.21238 6.964079 54.1966 L 3.849512 55.381358 L 2.31338 53.906348 L 0.700574 52.362732 L 0.700574 1.114699 Z M 175.682103 26.253202 L 175.856604 52.275656 L 174.087805 53.874684 C 173.601319 54.312701 173.26025 54.618786 172.977348 54.829878 C 172.69709 55.038332 172.527878 55.112215 172.393036 55.135963 C 172.268771 55.154433 172.110134 55.138601 171.835164 55.030416 C 171.552262 54.916954 171.197974 54.729609 170.685048 54.449911 C 169.085462 53.584431 166.742927 53.254599 162.396283 53.178078 L 156.550522 53.072531 L 145.736789 44.151226 C 142.730624 41.670886 140.017937 39.364698 138.06935 37.64957 C 137.096379 36.789367 136.319059 36.082207 135.79027 35.575584 C 135.578754 35.372407 135.412186 35.203533 135.293208 35.074239 C 135.354019 35.01355 135.42805 34.939667 135.517944 34.85523 C 135.837861 34.551784 136.311127 34.124322 136.937742 33.570203 C 138.190972 32.459328 140.052308 30.855023 142.521753 28.752012 C 147.457997 24.543351 154.818738 18.353057 164.60662 10.175853 L 175.512891 1.061925 Z M 175.682103 26.253202 " stroke="#ffffff" stroke-width="1" stroke-opacity="1" stroke-miterlimit="4"/></g></svg>